<mxfile host="app.diagrams.net" modified="2020-10-02T17:12:08.524Z" agent="5.0 (Windows NT 10.0; Win64; x64) AppleWebKit/537.36 (KHTML, like Gecko) Chrome/85.0.4183.121 Safari/537.36" etag="A1xg2yNUFiPwEcTILc4z" version="13.7.5" type="github">
  <diagram id="R2lEEEUBdFMjLlhIrx00" name="Page-1">
    <mxGraphModel dx="1632" dy="577" grid="1" gridSize="10" guides="1" tooltips="1" connect="1" arrows="1" fold="1" page="1" pageScale="1" pageWidth="850" pageHeight="1100" math="0" shadow="0" extFonts="Permanent Marker^https://fonts.googleapis.com/css?family=Permanent+Marker">
      <root>
        <mxCell id="0" />
        <mxCell id="1" parent="0" />
        <mxCell id="z0oqm9BWsSVBb0G1JqEK-1" value="Pet" style="shape=table;startSize=30;container=1;collapsible=1;childLayout=tableLayout;fixedRows=1;rowLines=0;fontStyle=1;align=center;resizeLast=1;" parent="1" vertex="1">
          <mxGeometry x="120" y="140" width="180" height="190" as="geometry" />
        </mxCell>
        <mxCell id="z0oqm9BWsSVBb0G1JqEK-2" value="" style="shape=partialRectangle;collapsible=0;dropTarget=0;pointerEvents=0;fillColor=none;top=0;left=0;bottom=1;right=0;points=[[0,0.5],[1,0.5]];portConstraint=eastwest;" parent="z0oqm9BWsSVBb0G1JqEK-1" vertex="1">
          <mxGeometry y="30" width="180" height="30" as="geometry" />
        </mxCell>
        <mxCell id="z0oqm9BWsSVBb0G1JqEK-3" value="PK" style="shape=partialRectangle;connectable=0;fillColor=none;top=0;left=0;bottom=0;right=0;fontStyle=1;overflow=hidden;" parent="z0oqm9BWsSVBb0G1JqEK-2" vertex="1">
          <mxGeometry width="30" height="30" as="geometry" />
        </mxCell>
        <mxCell id="z0oqm9BWsSVBb0G1JqEK-4" value="chipID" style="shape=partialRectangle;connectable=0;fillColor=none;top=0;left=0;bottom=0;right=0;align=left;spacingLeft=6;fontStyle=5;overflow=hidden;" parent="z0oqm9BWsSVBb0G1JqEK-2" vertex="1">
          <mxGeometry x="30" width="150" height="30" as="geometry" />
        </mxCell>
        <mxCell id="z0oqm9BWsSVBb0G1JqEK-5" value="" style="shape=partialRectangle;collapsible=0;dropTarget=0;pointerEvents=0;fillColor=none;top=0;left=0;bottom=0;right=0;points=[[0,0.5],[1,0.5]];portConstraint=eastwest;" parent="z0oqm9BWsSVBb0G1JqEK-1" vertex="1">
          <mxGeometry y="60" width="180" height="30" as="geometry" />
        </mxCell>
        <mxCell id="z0oqm9BWsSVBb0G1JqEK-6" value="" style="shape=partialRectangle;connectable=0;fillColor=none;top=0;left=0;bottom=0;right=0;editable=1;overflow=hidden;" parent="z0oqm9BWsSVBb0G1JqEK-5" vertex="1">
          <mxGeometry width="30" height="30" as="geometry" />
        </mxCell>
        <mxCell id="z0oqm9BWsSVBb0G1JqEK-7" value="breed" style="shape=partialRectangle;connectable=0;fillColor=none;top=0;left=0;bottom=0;right=0;align=left;spacingLeft=6;overflow=hidden;" parent="z0oqm9BWsSVBb0G1JqEK-5" vertex="1">
          <mxGeometry x="30" width="150" height="30" as="geometry" />
        </mxCell>
        <mxCell id="z0oqm9BWsSVBb0G1JqEK-8" value="" style="shape=partialRectangle;collapsible=0;dropTarget=0;pointerEvents=0;fillColor=none;top=0;left=0;bottom=0;right=0;points=[[0,0.5],[1,0.5]];portConstraint=eastwest;" parent="z0oqm9BWsSVBb0G1JqEK-1" vertex="1">
          <mxGeometry y="90" width="180" height="30" as="geometry" />
        </mxCell>
        <mxCell id="z0oqm9BWsSVBb0G1JqEK-9" value="" style="shape=partialRectangle;connectable=0;fillColor=none;top=0;left=0;bottom=0;right=0;editable=1;overflow=hidden;" parent="z0oqm9BWsSVBb0G1JqEK-8" vertex="1">
          <mxGeometry width="30" height="30" as="geometry" />
        </mxCell>
        <mxCell id="z0oqm9BWsSVBb0G1JqEK-10" value="DOB" style="shape=partialRectangle;connectable=0;fillColor=none;top=0;left=0;bottom=0;right=0;align=left;spacingLeft=6;overflow=hidden;" parent="z0oqm9BWsSVBb0G1JqEK-8" vertex="1">
          <mxGeometry x="30" width="150" height="30" as="geometry" />
        </mxCell>
        <mxCell id="z0oqm9BWsSVBb0G1JqEK-11" value="" style="shape=partialRectangle;collapsible=0;dropTarget=0;pointerEvents=0;fillColor=none;top=0;left=0;bottom=0;right=0;points=[[0,0.5],[1,0.5]];portConstraint=eastwest;" parent="z0oqm9BWsSVBb0G1JqEK-1" vertex="1">
          <mxGeometry y="120" width="180" height="30" as="geometry" />
        </mxCell>
        <mxCell id="z0oqm9BWsSVBb0G1JqEK-12" value="" style="shape=partialRectangle;connectable=0;fillColor=none;top=0;left=0;bottom=0;right=0;editable=1;overflow=hidden;" parent="z0oqm9BWsSVBb0G1JqEK-11" vertex="1">
          <mxGeometry width="30" height="30" as="geometry" />
        </mxCell>
        <mxCell id="z0oqm9BWsSVBb0G1JqEK-13" value="location" style="shape=partialRectangle;connectable=0;fillColor=none;top=0;left=0;bottom=0;right=0;align=left;spacingLeft=6;overflow=hidden;" parent="z0oqm9BWsSVBb0G1JqEK-11" vertex="1">
          <mxGeometry x="30" width="150" height="30" as="geometry" />
        </mxCell>
        <mxCell id="z0oqm9BWsSVBb0G1JqEK-113" value="" style="shape=partialRectangle;collapsible=0;dropTarget=0;pointerEvents=0;fillColor=none;top=0;left=0;bottom=0;right=0;points=[[0,0.5],[1,0.5]];portConstraint=eastwest;" parent="z0oqm9BWsSVBb0G1JqEK-1" vertex="1">
          <mxGeometry y="150" width="180" height="30" as="geometry" />
        </mxCell>
        <mxCell id="z0oqm9BWsSVBb0G1JqEK-114" value="" style="shape=partialRectangle;connectable=0;fillColor=none;top=0;left=0;bottom=0;right=0;editable=1;overflow=hidden;" parent="z0oqm9BWsSVBb0G1JqEK-113" vertex="1">
          <mxGeometry width="30" height="30" as="geometry" />
        </mxCell>
        <mxCell id="z0oqm9BWsSVBb0G1JqEK-115" value="name" style="shape=partialRectangle;connectable=0;fillColor=none;top=0;left=0;bottom=0;right=0;align=left;spacingLeft=6;overflow=hidden;" parent="z0oqm9BWsSVBb0G1JqEK-113" vertex="1">
          <mxGeometry x="30" width="150" height="30" as="geometry" />
        </mxCell>
        <mxCell id="z0oqm9BWsSVBb0G1JqEK-27" value="Kept" style="edgeStyle=orthogonalEdgeStyle;rounded=0;orthogonalLoop=1;jettySize=auto;html=1;exitX=1;exitY=0.5;exitDx=0;exitDy=0;endArrow=ERmandOne;endFill=0;startArrow=ERzeroToMany;startFill=1;" parent="1" source="z0oqm9BWsSVBb0G1JqEK-11" edge="1">
          <mxGeometry relative="1" as="geometry">
            <mxPoint x="470" y="185" as="targetPoint" />
            <Array as="points">
              <mxPoint x="370" y="275" />
              <mxPoint x="370" y="185" />
            </Array>
          </mxGeometry>
        </mxCell>
        <mxCell id="z0oqm9BWsSVBb0G1JqEK-30" value="(1,1)" style="edgeLabel;html=1;align=center;verticalAlign=middle;resizable=0;points=[];" parent="z0oqm9BWsSVBb0G1JqEK-27" vertex="1" connectable="0">
          <mxGeometry x="0.4345" relative="1" as="geometry">
            <mxPoint as="offset" />
          </mxGeometry>
        </mxCell>
        <mxCell id="z0oqm9BWsSVBb0G1JqEK-31" value="(0,100)" style="edgeLabel;html=1;align=center;verticalAlign=middle;resizable=0;points=[];" parent="z0oqm9BWsSVBb0G1JqEK-27" vertex="1" connectable="0">
          <mxGeometry x="-0.5923" y="3" relative="1" as="geometry">
            <mxPoint as="offset" />
          </mxGeometry>
        </mxCell>
        <mxCell id="z0oqm9BWsSVBb0G1JqEK-14" value="Enclosure" style="shape=table;startSize=30;container=1;collapsible=1;childLayout=tableLayout;fixedRows=1;rowLines=0;fontStyle=1;align=center;resizeLast=1;" parent="1" vertex="1">
          <mxGeometry x="470" y="140" width="180" height="160" as="geometry" />
        </mxCell>
        <mxCell id="z0oqm9BWsSVBb0G1JqEK-15" value="" style="shape=partialRectangle;collapsible=0;dropTarget=0;pointerEvents=0;fillColor=none;top=0;left=0;bottom=1;right=0;points=[[0,0.5],[1,0.5]];portConstraint=eastwest;" parent="z0oqm9BWsSVBb0G1JqEK-14" vertex="1">
          <mxGeometry y="30" width="180" height="30" as="geometry" />
        </mxCell>
        <mxCell id="z0oqm9BWsSVBb0G1JqEK-16" value="PK" style="shape=partialRectangle;connectable=0;fillColor=none;top=0;left=0;bottom=0;right=0;fontStyle=1;overflow=hidden;" parent="z0oqm9BWsSVBb0G1JqEK-15" vertex="1">
          <mxGeometry width="30" height="30" as="geometry" />
        </mxCell>
        <mxCell id="z0oqm9BWsSVBb0G1JqEK-17" value="enclosureNumber" style="shape=partialRectangle;connectable=0;fillColor=none;top=0;left=0;bottom=0;right=0;align=left;spacingLeft=6;fontStyle=5;overflow=hidden;" parent="z0oqm9BWsSVBb0G1JqEK-15" vertex="1">
          <mxGeometry x="30" width="150" height="30" as="geometry" />
        </mxCell>
        <mxCell id="z0oqm9BWsSVBb0G1JqEK-18" value="" style="shape=partialRectangle;collapsible=0;dropTarget=0;pointerEvents=0;fillColor=none;top=0;left=0;bottom=0;right=0;points=[[0,0.5],[1,0.5]];portConstraint=eastwest;" parent="z0oqm9BWsSVBb0G1JqEK-14" vertex="1">
          <mxGeometry y="60" width="180" height="30" as="geometry" />
        </mxCell>
        <mxCell id="z0oqm9BWsSVBb0G1JqEK-19" value="" style="shape=partialRectangle;connectable=0;fillColor=none;top=0;left=0;bottom=0;right=0;editable=1;overflow=hidden;" parent="z0oqm9BWsSVBb0G1JqEK-18" vertex="1">
          <mxGeometry width="30" height="30" as="geometry" />
        </mxCell>
        <mxCell id="z0oqm9BWsSVBb0G1JqEK-20" value="size" style="shape=partialRectangle;connectable=0;fillColor=none;top=0;left=0;bottom=0;right=0;align=left;spacingLeft=6;overflow=hidden;" parent="z0oqm9BWsSVBb0G1JqEK-18" vertex="1">
          <mxGeometry x="30" width="150" height="30" as="geometry" />
        </mxCell>
        <mxCell id="-Sp-7W_vErg65sVTsuDF-9" value="" style="shape=partialRectangle;collapsible=0;dropTarget=0;pointerEvents=0;fillColor=none;top=0;left=0;bottom=0;right=0;points=[[0,0.5],[1,0.5]];portConstraint=eastwest;" vertex="1" parent="z0oqm9BWsSVBb0G1JqEK-14">
          <mxGeometry y="90" width="180" height="30" as="geometry" />
        </mxCell>
        <mxCell id="-Sp-7W_vErg65sVTsuDF-10" value="" style="shape=partialRectangle;connectable=0;fillColor=none;top=0;left=0;bottom=0;right=0;editable=1;overflow=hidden;" vertex="1" parent="-Sp-7W_vErg65sVTsuDF-9">
          <mxGeometry width="30" height="30" as="geometry" />
        </mxCell>
        <mxCell id="-Sp-7W_vErg65sVTsuDF-11" value="capacity" style="shape=partialRectangle;connectable=0;fillColor=none;top=0;left=0;bottom=0;right=0;align=left;spacingLeft=6;overflow=hidden;" vertex="1" parent="-Sp-7W_vErg65sVTsuDF-9">
          <mxGeometry x="30" width="150" height="30" as="geometry" />
        </mxCell>
        <mxCell id="z0oqm9BWsSVBb0G1JqEK-24" value="" style="shape=partialRectangle;collapsible=0;dropTarget=0;pointerEvents=0;fillColor=none;top=0;left=0;bottom=0;right=0;points=[[0,0.5],[1,0.5]];portConstraint=eastwest;" parent="z0oqm9BWsSVBb0G1JqEK-14" vertex="1">
          <mxGeometry y="120" width="180" height="30" as="geometry" />
        </mxCell>
        <mxCell id="z0oqm9BWsSVBb0G1JqEK-25" value="" style="shape=partialRectangle;connectable=0;fillColor=none;top=0;left=0;bottom=0;right=0;editable=1;overflow=hidden;" parent="z0oqm9BWsSVBb0G1JqEK-24" vertex="1">
          <mxGeometry width="30" height="30" as="geometry" />
        </mxCell>
        <mxCell id="z0oqm9BWsSVBb0G1JqEK-26" value="location" style="shape=partialRectangle;connectable=0;fillColor=none;top=0;left=0;bottom=0;right=0;align=left;spacingLeft=6;overflow=hidden;" parent="z0oqm9BWsSVBb0G1JqEK-24" vertex="1">
          <mxGeometry x="30" width="150" height="30" as="geometry" />
        </mxCell>
        <mxCell id="z0oqm9BWsSVBb0G1JqEK-155" style="edgeStyle=orthogonalEdgeStyle;rounded=0;orthogonalLoop=1;jettySize=auto;html=1;exitX=0;exitY=0;exitDx=0;exitDy=0;entryX=0;entryY=0.5;entryDx=0;entryDy=0;startArrow=ERzeroToMany;startFill=1;endArrow=ERzeroToMany;endFill=1;" parent="1" source="z0oqm9BWsSVBb0G1JqEK-45" target="z0oqm9BWsSVBb0G1JqEK-5" edge="1">
          <mxGeometry relative="1" as="geometry">
            <Array as="points">
              <mxPoint x="530" y="340" />
              <mxPoint x="100" y="340" />
              <mxPoint x="100" y="215" />
            </Array>
          </mxGeometry>
        </mxCell>
        <mxCell id="z0oqm9BWsSVBb0G1JqEK-156" value="adopt" style="edgeLabel;html=1;align=center;verticalAlign=middle;resizable=0;points=[];" parent="z0oqm9BWsSVBb0G1JqEK-155" vertex="1" connectable="0">
          <mxGeometry x="-0.2628" y="-1" relative="1" as="geometry">
            <mxPoint as="offset" />
          </mxGeometry>
        </mxCell>
        <mxCell id="z0oqm9BWsSVBb0G1JqEK-157" value="(1,100)" style="edgeLabel;html=1;align=center;verticalAlign=middle;resizable=0;points=[];" parent="z0oqm9BWsSVBb0G1JqEK-155" vertex="1" connectable="0">
          <mxGeometry x="0.8777" relative="1" as="geometry">
            <mxPoint as="offset" />
          </mxGeometry>
        </mxCell>
        <mxCell id="z0oqm9BWsSVBb0G1JqEK-160" value="(1,10)" style="edgeLabel;html=1;align=center;verticalAlign=middle;resizable=0;points=[];" parent="z0oqm9BWsSVBb0G1JqEK-155" vertex="1" connectable="0">
          <mxGeometry x="-0.9405" y="11" relative="1" as="geometry">
            <mxPoint as="offset" />
          </mxGeometry>
        </mxCell>
        <mxCell id="z0oqm9BWsSVBb0G1JqEK-45" value="Customers" style="shape=table;startSize=30;container=1;collapsible=1;childLayout=tableLayout;fixedRows=1;rowLines=0;fontStyle=1;align=center;resizeLast=1;" parent="1" vertex="1">
          <mxGeometry x="530" y="370" width="180" height="160" as="geometry" />
        </mxCell>
        <mxCell id="z0oqm9BWsSVBb0G1JqEK-46" value="" style="shape=partialRectangle;collapsible=0;dropTarget=0;pointerEvents=0;fillColor=none;top=0;left=0;bottom=1;right=0;points=[[0,0.5],[1,0.5]];portConstraint=eastwest;" parent="z0oqm9BWsSVBb0G1JqEK-45" vertex="1">
          <mxGeometry y="30" width="180" height="30" as="geometry" />
        </mxCell>
        <mxCell id="z0oqm9BWsSVBb0G1JqEK-47" value="PK" style="shape=partialRectangle;connectable=0;fillColor=none;top=0;left=0;bottom=0;right=0;fontStyle=1;overflow=hidden;" parent="z0oqm9BWsSVBb0G1JqEK-46" vertex="1">
          <mxGeometry width="30" height="30" as="geometry" />
        </mxCell>
        <mxCell id="z0oqm9BWsSVBb0G1JqEK-48" value="name" style="shape=partialRectangle;connectable=0;fillColor=none;top=0;left=0;bottom=0;right=0;align=left;spacingLeft=6;fontStyle=5;overflow=hidden;" parent="z0oqm9BWsSVBb0G1JqEK-46" vertex="1">
          <mxGeometry x="30" width="150" height="30" as="geometry" />
        </mxCell>
        <mxCell id="z0oqm9BWsSVBb0G1JqEK-49" value="" style="shape=partialRectangle;collapsible=0;dropTarget=0;pointerEvents=0;fillColor=none;top=0;left=0;bottom=0;right=0;points=[[0,0.5],[1,0.5]];portConstraint=eastwest;" parent="z0oqm9BWsSVBb0G1JqEK-45" vertex="1">
          <mxGeometry y="60" width="180" height="30" as="geometry" />
        </mxCell>
        <mxCell id="z0oqm9BWsSVBb0G1JqEK-50" value="" style="shape=partialRectangle;connectable=0;fillColor=none;top=0;left=0;bottom=0;right=0;editable=1;overflow=hidden;" parent="z0oqm9BWsSVBb0G1JqEK-49" vertex="1">
          <mxGeometry width="30" height="30" as="geometry" />
        </mxCell>
        <mxCell id="z0oqm9BWsSVBb0G1JqEK-51" value="Address" style="shape=partialRectangle;connectable=0;fillColor=none;top=0;left=0;bottom=0;right=0;align=left;spacingLeft=6;overflow=hidden;" parent="z0oqm9BWsSVBb0G1JqEK-49" vertex="1">
          <mxGeometry x="30" width="150" height="30" as="geometry" />
        </mxCell>
        <mxCell id="z0oqm9BWsSVBb0G1JqEK-52" value="" style="shape=partialRectangle;collapsible=0;dropTarget=0;pointerEvents=0;fillColor=none;top=0;left=0;bottom=0;right=0;points=[[0,0.5],[1,0.5]];portConstraint=eastwest;" parent="z0oqm9BWsSVBb0G1JqEK-45" vertex="1">
          <mxGeometry y="90" width="180" height="30" as="geometry" />
        </mxCell>
        <mxCell id="z0oqm9BWsSVBb0G1JqEK-53" value="" style="shape=partialRectangle;connectable=0;fillColor=none;top=0;left=0;bottom=0;right=0;editable=1;overflow=hidden;" parent="z0oqm9BWsSVBb0G1JqEK-52" vertex="1">
          <mxGeometry width="30" height="30" as="geometry" />
        </mxCell>
        <mxCell id="z0oqm9BWsSVBb0G1JqEK-54" value="DOB" style="shape=partialRectangle;connectable=0;fillColor=none;top=0;left=0;bottom=0;right=0;align=left;spacingLeft=6;overflow=hidden;" parent="z0oqm9BWsSVBb0G1JqEK-52" vertex="1">
          <mxGeometry x="30" width="150" height="30" as="geometry" />
        </mxCell>
        <mxCell id="z0oqm9BWsSVBb0G1JqEK-55" value="" style="shape=partialRectangle;collapsible=0;dropTarget=0;pointerEvents=0;fillColor=none;top=0;left=0;bottom=0;right=0;points=[[0,0.5],[1,0.5]];portConstraint=eastwest;" parent="z0oqm9BWsSVBb0G1JqEK-45" vertex="1">
          <mxGeometry y="120" width="180" height="30" as="geometry" />
        </mxCell>
        <mxCell id="z0oqm9BWsSVBb0G1JqEK-56" value="" style="shape=partialRectangle;connectable=0;fillColor=none;top=0;left=0;bottom=0;right=0;editable=1;overflow=hidden;" parent="z0oqm9BWsSVBb0G1JqEK-55" vertex="1">
          <mxGeometry width="30" height="30" as="geometry" />
        </mxCell>
        <mxCell id="z0oqm9BWsSVBb0G1JqEK-57" value="phoneNumber" style="shape=partialRectangle;connectable=0;fillColor=none;top=0;left=0;bottom=0;right=0;align=left;spacingLeft=6;overflow=hidden;" parent="z0oqm9BWsSVBb0G1JqEK-55" vertex="1">
          <mxGeometry x="30" width="150" height="30" as="geometry" />
        </mxCell>
        <mxCell id="z0oqm9BWsSVBb0G1JqEK-32" value="Pet Food" style="shape=table;startSize=30;container=1;collapsible=1;childLayout=tableLayout;fixedRows=1;rowLines=0;fontStyle=1;align=center;resizeLast=1;" parent="1" vertex="1">
          <mxGeometry x="30" y="370" width="180" height="160" as="geometry" />
        </mxCell>
        <mxCell id="z0oqm9BWsSVBb0G1JqEK-33" value="" style="shape=partialRectangle;collapsible=0;dropTarget=0;pointerEvents=0;fillColor=none;top=0;left=0;bottom=1;right=0;points=[[0,0.5],[1,0.5]];portConstraint=eastwest;" parent="z0oqm9BWsSVBb0G1JqEK-32" vertex="1">
          <mxGeometry y="30" width="180" height="30" as="geometry" />
        </mxCell>
        <mxCell id="z0oqm9BWsSVBb0G1JqEK-34" value="PK" style="shape=partialRectangle;connectable=0;fillColor=none;top=0;left=0;bottom=0;right=0;fontStyle=1;overflow=hidden;" parent="z0oqm9BWsSVBb0G1JqEK-33" vertex="1">
          <mxGeometry width="30" height="30" as="geometry" />
        </mxCell>
        <mxCell id="z0oqm9BWsSVBb0G1JqEK-35" value="transactionID" style="shape=partialRectangle;connectable=0;fillColor=none;top=0;left=0;bottom=0;right=0;align=left;spacingLeft=6;fontStyle=5;overflow=hidden;" parent="z0oqm9BWsSVBb0G1JqEK-33" vertex="1">
          <mxGeometry x="30" width="150" height="30" as="geometry" />
        </mxCell>
        <mxCell id="z0oqm9BWsSVBb0G1JqEK-36" value="" style="shape=partialRectangle;collapsible=0;dropTarget=0;pointerEvents=0;fillColor=none;top=0;left=0;bottom=0;right=0;points=[[0,0.5],[1,0.5]];portConstraint=eastwest;" parent="z0oqm9BWsSVBb0G1JqEK-32" vertex="1">
          <mxGeometry y="60" width="180" height="30" as="geometry" />
        </mxCell>
        <mxCell id="z0oqm9BWsSVBb0G1JqEK-37" value="" style="shape=partialRectangle;connectable=0;fillColor=none;top=0;left=0;bottom=0;right=0;editable=1;overflow=hidden;" parent="z0oqm9BWsSVBb0G1JqEK-36" vertex="1">
          <mxGeometry width="30" height="30" as="geometry" />
        </mxCell>
        <mxCell id="z0oqm9BWsSVBb0G1JqEK-38" value="cost" style="shape=partialRectangle;connectable=0;fillColor=none;top=0;left=0;bottom=0;right=0;align=left;spacingLeft=6;overflow=hidden;" parent="z0oqm9BWsSVBb0G1JqEK-36" vertex="1">
          <mxGeometry x="30" width="150" height="30" as="geometry" />
        </mxCell>
        <mxCell id="z0oqm9BWsSVBb0G1JqEK-39" value="" style="shape=partialRectangle;collapsible=0;dropTarget=0;pointerEvents=0;fillColor=none;top=0;left=0;bottom=0;right=0;points=[[0,0.5],[1,0.5]];portConstraint=eastwest;" parent="z0oqm9BWsSVBb0G1JqEK-32" vertex="1">
          <mxGeometry y="90" width="180" height="30" as="geometry" />
        </mxCell>
        <mxCell id="z0oqm9BWsSVBb0G1JqEK-40" value="" style="shape=partialRectangle;connectable=0;fillColor=none;top=0;left=0;bottom=0;right=0;editable=1;overflow=hidden;" parent="z0oqm9BWsSVBb0G1JqEK-39" vertex="1">
          <mxGeometry width="30" height="30" as="geometry" />
        </mxCell>
        <mxCell id="z0oqm9BWsSVBb0G1JqEK-41" value="pet" style="shape=partialRectangle;connectable=0;fillColor=none;top=0;left=0;bottom=0;right=0;align=left;spacingLeft=6;overflow=hidden;" parent="z0oqm9BWsSVBb0G1JqEK-39" vertex="1">
          <mxGeometry x="30" width="150" height="30" as="geometry" />
        </mxCell>
        <mxCell id="z0oqm9BWsSVBb0G1JqEK-42" value="" style="shape=partialRectangle;collapsible=0;dropTarget=0;pointerEvents=0;fillColor=none;top=0;left=0;bottom=0;right=0;points=[[0,0.5],[1,0.5]];portConstraint=eastwest;" parent="z0oqm9BWsSVBb0G1JqEK-32" vertex="1">
          <mxGeometry y="120" width="180" height="30" as="geometry" />
        </mxCell>
        <mxCell id="z0oqm9BWsSVBb0G1JqEK-43" value="" style="shape=partialRectangle;connectable=0;fillColor=none;top=0;left=0;bottom=0;right=0;editable=1;overflow=hidden;" parent="z0oqm9BWsSVBb0G1JqEK-42" vertex="1">
          <mxGeometry width="30" height="30" as="geometry" />
        </mxCell>
        <mxCell id="z0oqm9BWsSVBb0G1JqEK-44" value="type" style="shape=partialRectangle;connectable=0;fillColor=none;top=0;left=0;bottom=0;right=0;align=left;spacingLeft=6;overflow=hidden;" parent="z0oqm9BWsSVBb0G1JqEK-42" vertex="1">
          <mxGeometry x="30" width="150" height="30" as="geometry" />
        </mxCell>
        <mxCell id="-Sp-7W_vErg65sVTsuDF-17" style="edgeStyle=orthogonalEdgeStyle;rounded=0;orthogonalLoop=1;jettySize=auto;html=1;exitX=1;exitY=1;exitDx=0;exitDy=0;entryX=1;entryY=0.5;entryDx=0;entryDy=0;startArrow=ERzeroToMany;startFill=1;endArrow=ERzeroToMany;endFill=1;" edge="1" parent="1" source="z0oqm9BWsSVBb0G1JqEK-71" target="-Sp-7W_vErg65sVTsuDF-9">
          <mxGeometry relative="1" as="geometry">
            <Array as="points">
              <mxPoint x="650" y="770" />
              <mxPoint x="790" y="770" />
              <mxPoint x="790" y="245" />
            </Array>
          </mxGeometry>
        </mxCell>
        <mxCell id="-Sp-7W_vErg65sVTsuDF-18" value="(1,50)" style="edgeLabel;html=1;align=center;verticalAlign=middle;resizable=0;points=[];" vertex="1" connectable="0" parent="-Sp-7W_vErg65sVTsuDF-17">
          <mxGeometry x="-0.8933" y="2" relative="1" as="geometry">
            <mxPoint as="offset" />
          </mxGeometry>
        </mxCell>
        <mxCell id="-Sp-7W_vErg65sVTsuDF-19" value="(1,50)" style="edgeLabel;html=1;align=center;verticalAlign=middle;resizable=0;points=[];" vertex="1" connectable="0" parent="-Sp-7W_vErg65sVTsuDF-17">
          <mxGeometry x="0.9224" y="2" relative="1" as="geometry">
            <mxPoint as="offset" />
          </mxGeometry>
        </mxCell>
        <mxCell id="-Sp-7W_vErg65sVTsuDF-20" value="shelters" style="edgeLabel;html=1;align=center;verticalAlign=middle;resizable=0;points=[];" vertex="1" connectable="0" parent="-Sp-7W_vErg65sVTsuDF-17">
          <mxGeometry x="-0.057" y="1" relative="1" as="geometry">
            <mxPoint as="offset" />
          </mxGeometry>
        </mxCell>
        <mxCell id="-Sp-7W_vErg65sVTsuDF-21" style="edgeStyle=orthogonalEdgeStyle;rounded=0;orthogonalLoop=1;jettySize=auto;html=1;exitX=0.25;exitY=0;exitDx=0;exitDy=0;entryX=1;entryY=0.5;entryDx=0;entryDy=0;startArrow=ERzeroToMany;startFill=1;endArrow=ERzeroToMany;endFill=1;" edge="1" parent="1" source="z0oqm9BWsSVBb0G1JqEK-71" target="z0oqm9BWsSVBb0G1JqEK-39">
          <mxGeometry relative="1" as="geometry" />
        </mxCell>
        <mxCell id="-Sp-7W_vErg65sVTsuDF-22" value="feeds" style="edgeLabel;html=1;align=center;verticalAlign=middle;resizable=0;points=[];" vertex="1" connectable="0" parent="-Sp-7W_vErg65sVTsuDF-21">
          <mxGeometry x="0.119" y="-1" relative="1" as="geometry">
            <mxPoint as="offset" />
          </mxGeometry>
        </mxCell>
        <mxCell id="-Sp-7W_vErg65sVTsuDF-23" value="(1,100)" style="edgeLabel;html=1;align=center;verticalAlign=middle;resizable=0;points=[];" vertex="1" connectable="0" parent="-Sp-7W_vErg65sVTsuDF-21">
          <mxGeometry x="0.8238" relative="1" as="geometry">
            <mxPoint as="offset" />
          </mxGeometry>
        </mxCell>
        <mxCell id="-Sp-7W_vErg65sVTsuDF-24" value="1,100)" style="edgeLabel;html=1;align=center;verticalAlign=middle;resizable=0;points=[];" vertex="1" connectable="0" parent="-Sp-7W_vErg65sVTsuDF-21">
          <mxGeometry x="-0.8143" y="-3" relative="1" as="geometry">
            <mxPoint as="offset" />
          </mxGeometry>
        </mxCell>
        <mxCell id="z0oqm9BWsSVBb0G1JqEK-71" value="Adoption" style="shape=table;startSize=30;container=1;collapsible=1;childLayout=tableLayout;fixedRows=1;rowLines=0;fontStyle=1;align=center;resizeLast=1;" parent="1" vertex="1">
          <mxGeometry x="470" y="590" width="180" height="160" as="geometry" />
        </mxCell>
        <mxCell id="z0oqm9BWsSVBb0G1JqEK-72" value="" style="shape=partialRectangle;collapsible=0;dropTarget=0;pointerEvents=0;fillColor=none;top=0;left=0;bottom=1;right=0;points=[[0,0.5],[1,0.5]];portConstraint=eastwest;" parent="z0oqm9BWsSVBb0G1JqEK-71" vertex="1">
          <mxGeometry y="30" width="180" height="30" as="geometry" />
        </mxCell>
        <mxCell id="z0oqm9BWsSVBb0G1JqEK-73" value="PK" style="shape=partialRectangle;connectable=0;fillColor=none;top=0;left=0;bottom=0;right=0;fontStyle=1;overflow=hidden;" parent="z0oqm9BWsSVBb0G1JqEK-72" vertex="1">
          <mxGeometry width="30" height="30" as="geometry" />
        </mxCell>
        <mxCell id="z0oqm9BWsSVBb0G1JqEK-74" value="transactionID" style="shape=partialRectangle;connectable=0;fillColor=none;top=0;left=0;bottom=0;right=0;align=left;spacingLeft=6;fontStyle=5;overflow=hidden;" parent="z0oqm9BWsSVBb0G1JqEK-72" vertex="1">
          <mxGeometry x="30" width="150" height="30" as="geometry" />
        </mxCell>
        <mxCell id="z0oqm9BWsSVBb0G1JqEK-75" value="" style="shape=partialRectangle;collapsible=0;dropTarget=0;pointerEvents=0;fillColor=none;top=0;left=0;bottom=0;right=0;points=[[0,0.5],[1,0.5]];portConstraint=eastwest;" parent="z0oqm9BWsSVBb0G1JqEK-71" vertex="1">
          <mxGeometry y="60" width="180" height="30" as="geometry" />
        </mxCell>
        <mxCell id="z0oqm9BWsSVBb0G1JqEK-76" value="" style="shape=partialRectangle;connectable=0;fillColor=none;top=0;left=0;bottom=0;right=0;editable=1;overflow=hidden;" parent="z0oqm9BWsSVBb0G1JqEK-75" vertex="1">
          <mxGeometry width="30" height="30" as="geometry" />
        </mxCell>
        <mxCell id="z0oqm9BWsSVBb0G1JqEK-77" value="cost" style="shape=partialRectangle;connectable=0;fillColor=none;top=0;left=0;bottom=0;right=0;align=left;spacingLeft=6;overflow=hidden;" parent="z0oqm9BWsSVBb0G1JqEK-75" vertex="1">
          <mxGeometry x="30" width="150" height="30" as="geometry" />
        </mxCell>
        <mxCell id="z0oqm9BWsSVBb0G1JqEK-78" value="" style="shape=partialRectangle;collapsible=0;dropTarget=0;pointerEvents=0;fillColor=none;top=0;left=0;bottom=0;right=0;points=[[0,0.5],[1,0.5]];portConstraint=eastwest;" parent="z0oqm9BWsSVBb0G1JqEK-71" vertex="1">
          <mxGeometry y="90" width="180" height="30" as="geometry" />
        </mxCell>
        <mxCell id="z0oqm9BWsSVBb0G1JqEK-79" value="FK" style="shape=partialRectangle;connectable=0;fillColor=none;top=0;left=0;bottom=0;right=0;editable=1;overflow=hidden;" parent="z0oqm9BWsSVBb0G1JqEK-78" vertex="1">
          <mxGeometry width="30" height="30" as="geometry" />
        </mxCell>
        <mxCell id="z0oqm9BWsSVBb0G1JqEK-80" value="petChipID" style="shape=partialRectangle;connectable=0;fillColor=none;top=0;left=0;bottom=0;right=0;align=left;spacingLeft=6;overflow=hidden;" parent="z0oqm9BWsSVBb0G1JqEK-78" vertex="1">
          <mxGeometry x="30" width="150" height="30" as="geometry" />
        </mxCell>
        <mxCell id="z0oqm9BWsSVBb0G1JqEK-81" value="" style="shape=partialRectangle;collapsible=0;dropTarget=0;pointerEvents=0;fillColor=none;top=0;left=0;bottom=0;right=0;points=[[0,0.5],[1,0.5]];portConstraint=eastwest;" parent="z0oqm9BWsSVBb0G1JqEK-71" vertex="1">
          <mxGeometry y="120" width="180" height="30" as="geometry" />
        </mxCell>
        <mxCell id="z0oqm9BWsSVBb0G1JqEK-82" value="FK" style="shape=partialRectangle;connectable=0;fillColor=none;top=0;left=0;bottom=0;right=0;editable=1;overflow=hidden;" parent="z0oqm9BWsSVBb0G1JqEK-81" vertex="1">
          <mxGeometry width="30" height="30" as="geometry" />
        </mxCell>
        <mxCell id="z0oqm9BWsSVBb0G1JqEK-83" value="customerName" style="shape=partialRectangle;connectable=0;fillColor=none;top=0;left=0;bottom=0;right=0;align=left;spacingLeft=6;overflow=hidden;" parent="z0oqm9BWsSVBb0G1JqEK-81" vertex="1">
          <mxGeometry x="30" width="150" height="30" as="geometry" />
        </mxCell>
        <mxCell id="-Sp-7W_vErg65sVTsuDF-13" style="edgeStyle=orthogonalEdgeStyle;rounded=0;orthogonalLoop=1;jettySize=auto;html=1;exitX=0.75;exitY=0;exitDx=0;exitDy=0;entryX=0;entryY=0.5;entryDx=0;entryDy=0;startArrow=ERmandOne;startFill=0;endArrow=ERzeroToMany;endFill=1;" edge="1" parent="1" source="z0oqm9BWsSVBb0G1JqEK-58" target="-Sp-7W_vErg65sVTsuDF-9">
          <mxGeometry relative="1" as="geometry">
            <Array as="points">
              <mxPoint x="275" y="540" />
              <mxPoint x="360" y="540" />
              <mxPoint x="360" y="400" />
              <mxPoint x="450" y="400" />
              <mxPoint x="450" y="245" />
            </Array>
          </mxGeometry>
        </mxCell>
        <mxCell id="-Sp-7W_vErg65sVTsuDF-14" value="discounts" style="edgeLabel;html=1;align=center;verticalAlign=middle;resizable=0;points=[];" vertex="1" connectable="0" parent="-Sp-7W_vErg65sVTsuDF-13">
          <mxGeometry x="-0.3259" y="-2" relative="1" as="geometry">
            <mxPoint as="offset" />
          </mxGeometry>
        </mxCell>
        <mxCell id="-Sp-7W_vErg65sVTsuDF-15" value="(1,1)" style="edgeLabel;html=1;align=center;verticalAlign=middle;resizable=0;points=[];" vertex="1" connectable="0" parent="-Sp-7W_vErg65sVTsuDF-13">
          <mxGeometry x="-0.8407" y="-1" relative="1" as="geometry">
            <mxPoint as="offset" />
          </mxGeometry>
        </mxCell>
        <mxCell id="-Sp-7W_vErg65sVTsuDF-16" value="(1,10)" style="edgeLabel;html=1;align=center;verticalAlign=middle;resizable=0;points=[];" vertex="1" connectable="0" parent="-Sp-7W_vErg65sVTsuDF-13">
          <mxGeometry x="0.8444" y="-1" relative="1" as="geometry">
            <mxPoint as="offset" />
          </mxGeometry>
        </mxCell>
        <mxCell id="z0oqm9BWsSVBb0G1JqEK-58" value="Loyalty Program" style="shape=table;startSize=30;container=1;collapsible=1;childLayout=tableLayout;fixedRows=1;rowLines=0;fontStyle=1;align=center;resizeLast=1;" parent="1" vertex="1">
          <mxGeometry x="140" y="590" width="180" height="190" as="geometry" />
        </mxCell>
        <mxCell id="z0oqm9BWsSVBb0G1JqEK-59" value="" style="shape=partialRectangle;collapsible=0;dropTarget=0;pointerEvents=0;fillColor=none;top=0;left=0;bottom=1;right=0;points=[[0,0.5],[1,0.5]];portConstraint=eastwest;" parent="z0oqm9BWsSVBb0G1JqEK-58" vertex="1">
          <mxGeometry y="30" width="180" height="30" as="geometry" />
        </mxCell>
        <mxCell id="z0oqm9BWsSVBb0G1JqEK-60" value="PK" style="shape=partialRectangle;connectable=0;fillColor=none;top=0;left=0;bottom=0;right=0;fontStyle=1;overflow=hidden;" parent="z0oqm9BWsSVBb0G1JqEK-59" vertex="1">
          <mxGeometry width="30" height="30" as="geometry" />
        </mxCell>
        <mxCell id="z0oqm9BWsSVBb0G1JqEK-61" value="customerID" style="shape=partialRectangle;connectable=0;fillColor=none;top=0;left=0;bottom=0;right=0;align=left;spacingLeft=6;fontStyle=5;overflow=hidden;" parent="z0oqm9BWsSVBb0G1JqEK-59" vertex="1">
          <mxGeometry x="30" width="150" height="30" as="geometry" />
        </mxCell>
        <mxCell id="z0oqm9BWsSVBb0G1JqEK-62" value="" style="shape=partialRectangle;collapsible=0;dropTarget=0;pointerEvents=0;fillColor=none;top=0;left=0;bottom=0;right=0;points=[[0,0.5],[1,0.5]];portConstraint=eastwest;" parent="z0oqm9BWsSVBb0G1JqEK-58" vertex="1">
          <mxGeometry y="60" width="180" height="30" as="geometry" />
        </mxCell>
        <mxCell id="z0oqm9BWsSVBb0G1JqEK-63" value="FK" style="shape=partialRectangle;connectable=0;fillColor=none;top=0;left=0;bottom=0;right=0;editable=1;overflow=hidden;" parent="z0oqm9BWsSVBb0G1JqEK-62" vertex="1">
          <mxGeometry width="30" height="30" as="geometry" />
        </mxCell>
        <mxCell id="z0oqm9BWsSVBb0G1JqEK-64" value="transactionID" style="shape=partialRectangle;connectable=0;fillColor=none;top=0;left=0;bottom=0;right=0;align=left;spacingLeft=6;overflow=hidden;" parent="z0oqm9BWsSVBb0G1JqEK-62" vertex="1">
          <mxGeometry x="30" width="150" height="30" as="geometry" />
        </mxCell>
        <mxCell id="z0oqm9BWsSVBb0G1JqEK-65" value="" style="shape=partialRectangle;collapsible=0;dropTarget=0;pointerEvents=0;fillColor=none;top=0;left=0;bottom=0;right=0;points=[[0,0.5],[1,0.5]];portConstraint=eastwest;" parent="z0oqm9BWsSVBb0G1JqEK-58" vertex="1">
          <mxGeometry y="90" width="180" height="30" as="geometry" />
        </mxCell>
        <mxCell id="z0oqm9BWsSVBb0G1JqEK-66" value="FK" style="shape=partialRectangle;connectable=0;fillColor=none;top=0;left=0;bottom=0;right=0;editable=1;overflow=hidden;" parent="z0oqm9BWsSVBb0G1JqEK-65" vertex="1">
          <mxGeometry width="30" height="30" as="geometry" />
        </mxCell>
        <mxCell id="z0oqm9BWsSVBb0G1JqEK-67" value="name" style="shape=partialRectangle;connectable=0;fillColor=none;top=0;left=0;bottom=0;right=0;align=left;spacingLeft=6;overflow=hidden;" parent="z0oqm9BWsSVBb0G1JqEK-65" vertex="1">
          <mxGeometry x="30" width="150" height="30" as="geometry" />
        </mxCell>
        <mxCell id="z0oqm9BWsSVBb0G1JqEK-68" value="" style="shape=partialRectangle;collapsible=0;dropTarget=0;pointerEvents=0;fillColor=none;top=0;left=0;bottom=0;right=0;points=[[0,0.5],[1,0.5]];portConstraint=eastwest;" parent="z0oqm9BWsSVBb0G1JqEK-58" vertex="1">
          <mxGeometry y="120" width="180" height="30" as="geometry" />
        </mxCell>
        <mxCell id="z0oqm9BWsSVBb0G1JqEK-69" value="" style="shape=partialRectangle;connectable=0;fillColor=none;top=0;left=0;bottom=0;right=0;editable=1;overflow=hidden;" parent="z0oqm9BWsSVBb0G1JqEK-68" vertex="1">
          <mxGeometry width="30" height="30" as="geometry" />
        </mxCell>
        <mxCell id="z0oqm9BWsSVBb0G1JqEK-70" value="DOB" style="shape=partialRectangle;connectable=0;fillColor=none;top=0;left=0;bottom=0;right=0;align=left;spacingLeft=6;overflow=hidden;" parent="z0oqm9BWsSVBb0G1JqEK-68" vertex="1">
          <mxGeometry x="30" width="150" height="30" as="geometry" />
        </mxCell>
        <mxCell id="z0oqm9BWsSVBb0G1JqEK-110" value="" style="shape=partialRectangle;collapsible=0;dropTarget=0;pointerEvents=0;fillColor=none;top=0;left=0;bottom=0;right=0;points=[[0,0.5],[1,0.5]];portConstraint=eastwest;" parent="z0oqm9BWsSVBb0G1JqEK-58" vertex="1">
          <mxGeometry y="150" width="180" height="30" as="geometry" />
        </mxCell>
        <mxCell id="z0oqm9BWsSVBb0G1JqEK-111" value="" style="shape=partialRectangle;connectable=0;fillColor=none;top=0;left=0;bottom=0;right=0;editable=1;overflow=hidden;" parent="z0oqm9BWsSVBb0G1JqEK-110" vertex="1">
          <mxGeometry width="30" height="30" as="geometry" />
        </mxCell>
        <mxCell id="z0oqm9BWsSVBb0G1JqEK-112" value="phoneNumber" style="shape=partialRectangle;connectable=0;fillColor=none;top=0;left=0;bottom=0;right=0;align=left;spacingLeft=6;overflow=hidden;" parent="z0oqm9BWsSVBb0G1JqEK-110" vertex="1">
          <mxGeometry x="30" width="150" height="30" as="geometry" />
        </mxCell>
        <mxCell id="z0oqm9BWsSVBb0G1JqEK-130" style="edgeStyle=orthogonalEdgeStyle;rounded=0;orthogonalLoop=1;jettySize=auto;html=1;exitX=1;exitY=0.5;exitDx=0;exitDy=0;entryX=0;entryY=0.5;entryDx=0;entryDy=0;startArrow=ERzeroToMany;startFill=1;endArrow=ERmandOne;endFill=0;" parent="1" source="z0oqm9BWsSVBb0G1JqEK-33" target="z0oqm9BWsSVBb0G1JqEK-62" edge="1">
          <mxGeometry relative="1" as="geometry" />
        </mxCell>
        <mxCell id="z0oqm9BWsSVBb0G1JqEK-132" value="(1,1000)" style="edgeLabel;html=1;align=center;verticalAlign=middle;resizable=0;points=[];" parent="z0oqm9BWsSVBb0G1JqEK-130" vertex="1" connectable="0">
          <mxGeometry x="-0.79" y="1" relative="1" as="geometry">
            <mxPoint as="offset" />
          </mxGeometry>
        </mxCell>
        <mxCell id="z0oqm9BWsSVBb0G1JqEK-133" value="(1,1)" style="edgeLabel;html=1;align=center;verticalAlign=middle;resizable=0;points=[];" parent="z0oqm9BWsSVBb0G1JqEK-130" vertex="1" connectable="0">
          <mxGeometry x="0.785" relative="1" as="geometry">
            <mxPoint as="offset" />
          </mxGeometry>
        </mxCell>
        <mxCell id="z0oqm9BWsSVBb0G1JqEK-134" value="Rewards" style="edgeLabel;html=1;align=center;verticalAlign=middle;resizable=0;points=[];" parent="z0oqm9BWsSVBb0G1JqEK-130" vertex="1" connectable="0">
          <mxGeometry x="-0.065" y="3" relative="1" as="geometry">
            <mxPoint as="offset" />
          </mxGeometry>
        </mxCell>
        <mxCell id="z0oqm9BWsSVBb0G1JqEK-135" style="edgeStyle=orthogonalEdgeStyle;rounded=0;orthogonalLoop=1;jettySize=auto;html=1;exitX=0;exitY=0.5;exitDx=0;exitDy=0;entryX=1;entryY=0.5;entryDx=0;entryDy=0;startArrow=ERzeroToMany;startFill=1;endArrow=ERmandOne;endFill=0;" parent="1" source="z0oqm9BWsSVBb0G1JqEK-72" target="z0oqm9BWsSVBb0G1JqEK-62" edge="1">
          <mxGeometry relative="1" as="geometry">
            <Array as="points">
              <mxPoint x="395" y="635" />
              <mxPoint x="395" y="665" />
            </Array>
          </mxGeometry>
        </mxCell>
        <mxCell id="z0oqm9BWsSVBb0G1JqEK-136" value="(1,1)" style="edgeLabel;html=1;align=center;verticalAlign=middle;resizable=0;points=[];" parent="z0oqm9BWsSVBb0G1JqEK-135" vertex="1" connectable="0">
          <mxGeometry x="0.7222" relative="1" as="geometry">
            <mxPoint as="offset" />
          </mxGeometry>
        </mxCell>
        <mxCell id="z0oqm9BWsSVBb0G1JqEK-137" value="(1,100)" style="edgeLabel;html=1;align=center;verticalAlign=middle;resizable=0;points=[];" parent="z0oqm9BWsSVBb0G1JqEK-135" vertex="1" connectable="0">
          <mxGeometry x="-0.4556" y="1" relative="1" as="geometry">
            <mxPoint as="offset" />
          </mxGeometry>
        </mxCell>
        <mxCell id="z0oqm9BWsSVBb0G1JqEK-138" value="Rewards" style="edgeLabel;html=1;align=center;verticalAlign=middle;resizable=0;points=[];" parent="z0oqm9BWsSVBb0G1JqEK-135" vertex="1" connectable="0">
          <mxGeometry x="0.1111" relative="1" as="geometry">
            <mxPoint as="offset" />
          </mxGeometry>
        </mxCell>
        <mxCell id="z0oqm9BWsSVBb0G1JqEK-140" style="edgeStyle=orthogonalEdgeStyle;rounded=0;orthogonalLoop=1;jettySize=auto;html=1;exitX=1;exitY=0.5;exitDx=0;exitDy=0;entryX=0;entryY=0.5;entryDx=0;entryDy=0;startArrow=ERmandOne;startFill=0;endArrow=ERmandOne;endFill=0;" parent="1" source="z0oqm9BWsSVBb0G1JqEK-59" target="z0oqm9BWsSVBb0G1JqEK-46" edge="1">
          <mxGeometry relative="1" as="geometry">
            <Array as="points">
              <mxPoint x="350" y="635" />
              <mxPoint x="350" y="610" />
              <mxPoint x="425" y="610" />
              <mxPoint x="425" y="415" />
            </Array>
          </mxGeometry>
        </mxCell>
        <mxCell id="z0oqm9BWsSVBb0G1JqEK-141" value="(1,1)" style="edgeLabel;html=1;align=center;verticalAlign=middle;resizable=0;points=[];" parent="z0oqm9BWsSVBb0G1JqEK-140" vertex="1" connectable="0">
          <mxGeometry x="-0.8605" y="4" relative="1" as="geometry">
            <mxPoint x="6" y="-3" as="offset" />
          </mxGeometry>
        </mxCell>
        <mxCell id="z0oqm9BWsSVBb0G1JqEK-143" value="(1,1)" style="edgeLabel;html=1;align=center;verticalAlign=middle;resizable=0;points=[];" parent="z0oqm9BWsSVBb0G1JqEK-140" vertex="1" connectable="0">
          <mxGeometry x="0.8512" y="-2" relative="1" as="geometry">
            <mxPoint as="offset" />
          </mxGeometry>
        </mxCell>
        <mxCell id="z0oqm9BWsSVBb0G1JqEK-144" value="use" style="edgeLabel;html=1;align=center;verticalAlign=middle;resizable=0;points=[];" parent="z0oqm9BWsSVBb0G1JqEK-140" vertex="1" connectable="0">
          <mxGeometry x="-0.0279" y="-2" relative="1" as="geometry">
            <mxPoint as="offset" />
          </mxGeometry>
        </mxCell>
        <mxCell id="z0oqm9BWsSVBb0G1JqEK-146" style="edgeStyle=orthogonalEdgeStyle;rounded=0;orthogonalLoop=1;jettySize=auto;html=1;exitX=1;exitY=0.5;exitDx=0;exitDy=0;entryX=1;entryY=0.5;entryDx=0;entryDy=0;startArrow=ERmandOne;startFill=0;endArrow=ERzeroToMany;endFill=1;" parent="1" source="z0oqm9BWsSVBb0G1JqEK-46" target="z0oqm9BWsSVBb0G1JqEK-18" edge="1">
          <mxGeometry relative="1" as="geometry">
            <Array as="points">
              <mxPoint x="750" y="415" />
              <mxPoint x="750" y="215" />
            </Array>
          </mxGeometry>
        </mxCell>
        <mxCell id="z0oqm9BWsSVBb0G1JqEK-147" value="purchase" style="edgeLabel;html=1;align=center;verticalAlign=middle;resizable=0;points=[];" parent="z0oqm9BWsSVBb0G1JqEK-146" vertex="1" connectable="0">
          <mxGeometry x="0.0067" y="2" relative="1" as="geometry">
            <mxPoint as="offset" />
          </mxGeometry>
        </mxCell>
        <mxCell id="z0oqm9BWsSVBb0G1JqEK-148" value="(1,1)" style="edgeLabel;html=1;align=center;verticalAlign=middle;resizable=0;points=[];" parent="z0oqm9BWsSVBb0G1JqEK-146" vertex="1" connectable="0">
          <mxGeometry x="-0.6933" y="-1" relative="1" as="geometry">
            <mxPoint as="offset" />
          </mxGeometry>
        </mxCell>
        <mxCell id="z0oqm9BWsSVBb0G1JqEK-183" value="(1,100)" style="edgeLabel;html=1;align=center;verticalAlign=middle;resizable=0;points=[];" parent="z0oqm9BWsSVBb0G1JqEK-146" vertex="1" connectable="0">
          <mxGeometry x="0.82" relative="1" as="geometry">
            <mxPoint as="offset" />
          </mxGeometry>
        </mxCell>
        <mxCell id="z0oqm9BWsSVBb0G1JqEK-151" style="edgeStyle=orthogonalEdgeStyle;rounded=0;orthogonalLoop=1;jettySize=auto;html=1;exitX=0;exitY=0.5;exitDx=0;exitDy=0;entryX=0;entryY=0.5;entryDx=0;entryDy=0;startArrow=ERmandOne;startFill=0;endArrow=ERzeroToMany;endFill=1;" parent="1" source="z0oqm9BWsSVBb0G1JqEK-68" target="z0oqm9BWsSVBb0G1JqEK-2" edge="1">
          <mxGeometry relative="1" as="geometry">
            <Array as="points">
              <mxPoint x="-30" y="725" />
              <mxPoint x="-30" y="185" />
            </Array>
          </mxGeometry>
        </mxCell>
        <mxCell id="z0oqm9BWsSVBb0G1JqEK-152" value="discounts" style="edgeLabel;html=1;align=center;verticalAlign=middle;resizable=0;points=[];" parent="z0oqm9BWsSVBb0G1JqEK-151" vertex="1" connectable="0">
          <mxGeometry x="0.141" relative="1" as="geometry">
            <mxPoint as="offset" />
          </mxGeometry>
        </mxCell>
        <mxCell id="z0oqm9BWsSVBb0G1JqEK-153" value="(1,1)" style="edgeLabel;html=1;align=center;verticalAlign=middle;resizable=0;points=[];" parent="z0oqm9BWsSVBb0G1JqEK-151" vertex="1" connectable="0">
          <mxGeometry x="-0.9103" y="2" relative="1" as="geometry">
            <mxPoint as="offset" />
          </mxGeometry>
        </mxCell>
        <mxCell id="z0oqm9BWsSVBb0G1JqEK-154" value="(1,100)" style="edgeLabel;html=1;align=center;verticalAlign=middle;resizable=0;points=[];" parent="z0oqm9BWsSVBb0G1JqEK-151" vertex="1" connectable="0">
          <mxGeometry x="0.9308" y="-3" relative="1" as="geometry">
            <mxPoint as="offset" />
          </mxGeometry>
        </mxCell>
        <mxCell id="z0oqm9BWsSVBb0G1JqEK-164" style="edgeStyle=orthogonalEdgeStyle;rounded=0;orthogonalLoop=1;jettySize=auto;html=1;exitX=0;exitY=0.5;exitDx=0;exitDy=0;entryX=0;entryY=0.119;entryDx=0;entryDy=0;entryPerimeter=0;startArrow=ERzeroToMany;startFill=1;endArrow=ERzeroToMany;endFill=1;" parent="1" source="z0oqm9BWsSVBb0G1JqEK-39" target="z0oqm9BWsSVBb0G1JqEK-45" edge="1">
          <mxGeometry relative="1" as="geometry">
            <Array as="points">
              <mxPoint x="10" y="475" />
              <mxPoint x="10" y="360" />
              <mxPoint x="480" y="360" />
              <mxPoint x="480" y="389" />
            </Array>
          </mxGeometry>
        </mxCell>
        <mxCell id="z0oqm9BWsSVBb0G1JqEK-165" value="(1,1000)" style="edgeLabel;html=1;align=center;verticalAlign=middle;resizable=0;points=[];" parent="z0oqm9BWsSVBb0G1JqEK-164" vertex="1" connectable="0">
          <mxGeometry x="-0.8597" y="-2" relative="1" as="geometry">
            <mxPoint as="offset" />
          </mxGeometry>
        </mxCell>
        <mxCell id="z0oqm9BWsSVBb0G1JqEK-180" value="purchase" style="edgeLabel;html=1;align=center;verticalAlign=middle;resizable=0;points=[];" parent="z0oqm9BWsSVBb0G1JqEK-164" vertex="1" connectable="0">
          <mxGeometry x="0.0526" y="-1" relative="1" as="geometry">
            <mxPoint as="offset" />
          </mxGeometry>
        </mxCell>
        <mxCell id="z0oqm9BWsSVBb0G1JqEK-182" value="(1,10)" style="edgeLabel;html=1;align=center;verticalAlign=middle;resizable=0;points=[];" parent="z0oqm9BWsSVBb0G1JqEK-164" vertex="1" connectable="0">
          <mxGeometry x="0.886" y="-1" relative="1" as="geometry">
            <mxPoint as="offset" />
          </mxGeometry>
        </mxCell>
        <mxCell id="z0oqm9BWsSVBb0G1JqEK-184" style="edgeStyle=orthogonalEdgeStyle;rounded=0;orthogonalLoop=1;jettySize=auto;html=1;exitX=1;exitY=0.5;exitDx=0;exitDy=0;entryX=1;entryY=1;entryDx=0;entryDy=0;startArrow=ERzeroToMany;startFill=1;endArrow=ERzeroToMany;endFill=1;" parent="1" source="z0oqm9BWsSVBb0G1JqEK-78" target="z0oqm9BWsSVBb0G1JqEK-45" edge="1">
          <mxGeometry relative="1" as="geometry" />
        </mxCell>
        <mxCell id="z0oqm9BWsSVBb0G1JqEK-185" value="choose" style="edgeLabel;html=1;align=center;verticalAlign=middle;resizable=0;points=[];" parent="z0oqm9BWsSVBb0G1JqEK-184" vertex="1" connectable="0">
          <mxGeometry x="-0.0222" relative="1" as="geometry">
            <mxPoint as="offset" />
          </mxGeometry>
        </mxCell>
        <mxCell id="z0oqm9BWsSVBb0G1JqEK-186" value="(1,10)" style="edgeLabel;html=1;align=center;verticalAlign=middle;resizable=0;points=[];" parent="z0oqm9BWsSVBb0G1JqEK-184" vertex="1" connectable="0">
          <mxGeometry x="0.7867" y="1" relative="1" as="geometry">
            <mxPoint as="offset" />
          </mxGeometry>
        </mxCell>
        <mxCell id="z0oqm9BWsSVBb0G1JqEK-187" value="(1,1000)" style="edgeLabel;html=1;align=center;verticalAlign=middle;resizable=0;points=[];" parent="z0oqm9BWsSVBb0G1JqEK-184" vertex="1" connectable="0">
          <mxGeometry x="-0.6444" y="3" relative="1" as="geometry">
            <mxPoint as="offset" />
          </mxGeometry>
        </mxCell>
        <mxCell id="z0oqm9BWsSVBb0G1JqEK-188" style="edgeStyle=orthogonalEdgeStyle;rounded=0;orthogonalLoop=1;jettySize=auto;html=1;exitX=0;exitY=0.5;exitDx=0;exitDy=0;entryX=1;entryY=0.5;entryDx=0;entryDy=0;startArrow=ERmandOne;startFill=0;endArrow=ERzeroToMany;endFill=1;" parent="1" source="z0oqm9BWsSVBb0G1JqEK-78" target="z0oqm9BWsSVBb0G1JqEK-2" edge="1">
          <mxGeometry relative="1" as="geometry">
            <Array as="points">
              <mxPoint x="440" y="695" />
              <mxPoint x="440" y="830" />
              <mxPoint x="820" y="830" />
              <mxPoint x="820" y="110" />
              <mxPoint x="340" y="110" />
              <mxPoint x="340" y="185" />
            </Array>
          </mxGeometry>
        </mxCell>
        <mxCell id="z0oqm9BWsSVBb0G1JqEK-190" value="Chosen" style="edgeLabel;html=1;align=center;verticalAlign=middle;resizable=0;points=[];" parent="z0oqm9BWsSVBb0G1JqEK-188" vertex="1" connectable="0">
          <mxGeometry x="-0.0671" y="-3" relative="1" as="geometry">
            <mxPoint as="offset" />
          </mxGeometry>
        </mxCell>
        <mxCell id="z0oqm9BWsSVBb0G1JqEK-191" value="(1,1000)" style="edgeLabel;html=1;align=center;verticalAlign=middle;resizable=0;points=[];" parent="z0oqm9BWsSVBb0G1JqEK-188" vertex="1" connectable="0">
          <mxGeometry x="0.9458" y="-1" relative="1" as="geometry">
            <mxPoint as="offset" />
          </mxGeometry>
        </mxCell>
        <mxCell id="z0oqm9BWsSVBb0G1JqEK-192" value="(1,1)" style="edgeLabel;html=1;align=center;verticalAlign=middle;resizable=0;points=[];" parent="z0oqm9BWsSVBb0G1JqEK-188" vertex="1" connectable="0">
          <mxGeometry x="-0.9677" y="13" relative="1" as="geometry">
            <mxPoint x="-17" y="12" as="offset" />
          </mxGeometry>
        </mxCell>
        <mxCell id="-Sp-7W_vErg65sVTsuDF-1" style="edgeStyle=orthogonalEdgeStyle;rounded=0;orthogonalLoop=1;jettySize=auto;html=1;exitX=0;exitY=0.5;exitDx=0;exitDy=0;entryX=0;entryY=0;entryDx=0;entryDy=0;endArrow=ERzeroToMany;endFill=1;startArrow=ERzeroToMany;startFill=1;" edge="1" parent="1" source="z0oqm9BWsSVBb0G1JqEK-42" target="z0oqm9BWsSVBb0G1JqEK-1">
          <mxGeometry relative="1" as="geometry">
            <Array as="points">
              <mxPoint x="-10" y="505" />
              <mxPoint x="-10" y="120" />
              <mxPoint x="120" y="120" />
            </Array>
          </mxGeometry>
        </mxCell>
        <mxCell id="-Sp-7W_vErg65sVTsuDF-2" value="Feeds" style="edgeLabel;html=1;align=center;verticalAlign=middle;resizable=0;points=[];" vertex="1" connectable="0" parent="-Sp-7W_vErg65sVTsuDF-1">
          <mxGeometry x="-0.1026" y="-3" relative="1" as="geometry">
            <mxPoint as="offset" />
          </mxGeometry>
        </mxCell>
        <mxCell id="-Sp-7W_vErg65sVTsuDF-4" value="(1,100)" style="edgeLabel;html=1;align=center;verticalAlign=middle;resizable=0;points=[];" vertex="1" connectable="0" parent="-Sp-7W_vErg65sVTsuDF-1">
          <mxGeometry x="0.8643" relative="1" as="geometry">
            <mxPoint as="offset" />
          </mxGeometry>
        </mxCell>
        <mxCell id="-Sp-7W_vErg65sVTsuDF-5" value="(1,1000)" style="edgeLabel;html=1;align=center;verticalAlign=middle;resizable=0;points=[];" vertex="1" connectable="0" parent="-Sp-7W_vErg65sVTsuDF-1">
          <mxGeometry x="-0.8609" y="-7" relative="1" as="geometry">
            <mxPoint x="-7" y="-7" as="offset" />
          </mxGeometry>
        </mxCell>
        <mxCell id="-Sp-7W_vErg65sVTsuDF-6" style="edgeStyle=orthogonalEdgeStyle;rounded=0;orthogonalLoop=1;jettySize=auto;html=1;exitX=0;exitY=0.5;exitDx=0;exitDy=0;entryX=1;entryY=0.113;entryDx=0;entryDy=0;entryPerimeter=0;startArrow=ERmandOne;startFill=0;endArrow=ERzeroToMany;endFill=1;" edge="1" parent="1" source="z0oqm9BWsSVBb0G1JqEK-18" target="z0oqm9BWsSVBb0G1JqEK-32">
          <mxGeometry relative="1" as="geometry">
            <Array as="points">
              <mxPoint x="410" y="215" />
              <mxPoint x="410" y="388" />
            </Array>
          </mxGeometry>
        </mxCell>
        <mxCell id="-Sp-7W_vErg65sVTsuDF-7" value="(1,1000)" style="edgeLabel;html=1;align=center;verticalAlign=middle;resizable=0;points=[];" vertex="1" connectable="0" parent="-Sp-7W_vErg65sVTsuDF-6">
          <mxGeometry x="0.8245" y="2" relative="1" as="geometry">
            <mxPoint as="offset" />
          </mxGeometry>
        </mxCell>
        <mxCell id="-Sp-7W_vErg65sVTsuDF-8" value="(1,1)" style="edgeLabel;html=1;align=center;verticalAlign=middle;resizable=0;points=[];" vertex="1" connectable="0" parent="-Sp-7W_vErg65sVTsuDF-6">
          <mxGeometry x="-0.8107" y="1" relative="1" as="geometry">
            <mxPoint as="offset" />
          </mxGeometry>
        </mxCell>
        <mxCell id="-Sp-7W_vErg65sVTsuDF-12" value="holds" style="edgeLabel;html=1;align=center;verticalAlign=middle;resizable=0;points=[];" vertex="1" connectable="0" parent="-Sp-7W_vErg65sVTsuDF-6">
          <mxGeometry x="-0.2796" y="-1" relative="1" as="geometry">
            <mxPoint as="offset" />
          </mxGeometry>
        </mxCell>
      </root>
    </mxGraphModel>
  </diagram>
</mxfile>
